<mxfile host="Electron" modified="2024-05-05T06:43:55.043Z" agent="Mozilla/5.0 (Windows NT 10.0; Win64; x64) AppleWebKit/537.36 (KHTML, like Gecko) draw.io/21.2.8 Chrome/112.0.5615.165 Electron/24.2.0 Safari/537.36" etag="hKExw4CmUfTez9N_S5Ik" version="21.2.8" type="device">
  <diagram name="Page-1" id="ac0-5Axkzdwwxx8cRdzC">
    <mxGraphModel dx="1663" dy="1714" grid="1" gridSize="10" guides="1" tooltips="1" connect="1" arrows="1" fold="1" page="1" pageScale="1" pageWidth="827" pageHeight="1169" math="0" shadow="0">
      <root>
        <mxCell id="0" />
        <mxCell id="1" parent="0" />
        <mxCell id="ugWdAH9gTy0CYIlYv7zM-1" value="&lt;font face=&quot;Verdana&quot; style=&quot;font-size: 16px;&quot;&gt;&lt;b&gt;0&lt;/b&gt;&lt;/font&gt;" style="rounded=0;whiteSpace=wrap;html=1;fillColor=#e1d5e7;strokeColor=#0d0c0d;" parent="1" vertex="1">
          <mxGeometry x="-720" y="240" width="40" height="30" as="geometry" />
        </mxCell>
        <mxCell id="ugWdAH9gTy0CYIlYv7zM-2" value="&lt;font face=&quot;Verdana&quot; style=&quot;font-size: 16px;&quot;&gt;&lt;b&gt;3&lt;/b&gt;&lt;/font&gt;" style="rounded=0;whiteSpace=wrap;html=1;fillColor=#b1ddf0;strokeColor=#161717;" parent="1" vertex="1">
          <mxGeometry x="-680" y="180" width="40" height="60" as="geometry" />
        </mxCell>
        <mxCell id="ugWdAH9gTy0CYIlYv7zM-3" value="&lt;font face=&quot;Verdana&quot; style=&quot;font-size: 16px;&quot;&gt;&lt;b&gt;2&lt;/b&gt;&lt;/font&gt;" style="rounded=0;whiteSpace=wrap;html=1;fillColor=#b1ddf0;strokeColor=#161717;" parent="1" vertex="1">
          <mxGeometry x="-600" y="200" width="40" height="40" as="geometry" />
        </mxCell>
        <mxCell id="ugWdAH9gTy0CYIlYv7zM-4" value="&lt;font face=&quot;Verdana&quot; style=&quot;font-size: 16px;&quot;&gt;&lt;b&gt;1&lt;/b&gt;&lt;/font&gt;" style="rounded=0;whiteSpace=wrap;html=1;fillColor=#b1ddf0;strokeColor=#161717;" parent="1" vertex="1">
          <mxGeometry x="-480" y="220" width="40" height="20" as="geometry" />
        </mxCell>
        <mxCell id="ugWdAH9gTy0CYIlYv7zM-5" value="&lt;font face=&quot;Verdana&quot; style=&quot;font-size: 16px;&quot;&gt;&lt;b&gt;1&lt;/b&gt;&lt;/font&gt;" style="rounded=0;whiteSpace=wrap;html=1;fillColor=#e1d5e7;strokeColor=#0d0c0d;" parent="1" vertex="1">
          <mxGeometry x="-680" y="240" width="40" height="30" as="geometry" />
        </mxCell>
        <mxCell id="ugWdAH9gTy0CYIlYv7zM-6" value="&lt;font face=&quot;Verdana&quot; style=&quot;font-size: 16px;&quot;&gt;&lt;b&gt;2&lt;/b&gt;&lt;/font&gt;" style="rounded=0;whiteSpace=wrap;html=1;fillColor=#e1d5e7;strokeColor=#0d0c0d;" parent="1" vertex="1">
          <mxGeometry x="-640" y="240" width="40" height="30" as="geometry" />
        </mxCell>
        <mxCell id="DwyBziVhjBW1dfS6EaBD-1" value="&lt;font face=&quot;Verdana&quot; style=&quot;font-size: 16px;&quot;&gt;&lt;b&gt;3&lt;/b&gt;&lt;/font&gt;" style="rounded=0;whiteSpace=wrap;html=1;fillColor=#e1d5e7;strokeColor=#0d0c0d;" parent="1" vertex="1">
          <mxGeometry x="-600" y="240" width="40" height="30" as="geometry" />
        </mxCell>
        <mxCell id="DwyBziVhjBW1dfS6EaBD-2" value="&lt;font face=&quot;Verdana&quot; style=&quot;font-size: 16px;&quot;&gt;&lt;b&gt;4&lt;/b&gt;&lt;/font&gt;" style="rounded=0;whiteSpace=wrap;html=1;fillColor=#e1d5e7;strokeColor=#0d0c0d;" parent="1" vertex="1">
          <mxGeometry x="-560" y="240" width="40" height="30" as="geometry" />
        </mxCell>
        <mxCell id="DwyBziVhjBW1dfS6EaBD-3" value="&lt;font face=&quot;Verdana&quot; style=&quot;font-size: 16px;&quot;&gt;&lt;b&gt;5&lt;/b&gt;&lt;/font&gt;" style="rounded=0;whiteSpace=wrap;html=1;fillColor=#e1d5e7;strokeColor=#0d0c0d;" parent="1" vertex="1">
          <mxGeometry x="-520" y="240" width="40" height="30" as="geometry" />
        </mxCell>
        <mxCell id="DwyBziVhjBW1dfS6EaBD-5" value="&lt;font face=&quot;Verdana&quot; style=&quot;font-size: 16px;&quot;&gt;&lt;b&gt;4&lt;/b&gt;&lt;/font&gt;" style="rounded=0;whiteSpace=wrap;html=1;fillColor=#b1ddf0;strokeColor=#161717;" parent="1" vertex="1">
          <mxGeometry x="-720" y="160" width="40" height="80" as="geometry" />
        </mxCell>
        <mxCell id="DwyBziVhjBW1dfS6EaBD-6" value="&lt;font face=&quot;Verdana&quot;&gt;&lt;span style=&quot;font-size: 16px;&quot;&gt;&lt;b&gt;5&lt;/b&gt;&lt;/span&gt;&lt;/font&gt;" style="rounded=0;whiteSpace=wrap;html=1;fillColor=#b1ddf0;strokeColor=#161717;" parent="1" vertex="1">
          <mxGeometry x="-440" y="140" width="40" height="100" as="geometry" />
        </mxCell>
        <mxCell id="DwyBziVhjBW1dfS6EaBD-7" value="&lt;font face=&quot;Verdana&quot;&gt;&lt;span style=&quot;font-size: 16px;&quot;&gt;&lt;b&gt;9&lt;/b&gt;&lt;/span&gt;&lt;/font&gt;" style="rounded=0;whiteSpace=wrap;html=1;fillColor=#b1ddf0;strokeColor=#161717;" parent="1" vertex="1">
          <mxGeometry x="-560" y="60" width="40" height="180" as="geometry" />
        </mxCell>
        <mxCell id="Awt-DgbT7jhiaurr5O_n-1" value="&lt;font face=&quot;Verdana&quot; style=&quot;font-size: 16px;&quot;&gt;&lt;b&gt;6&lt;/b&gt;&lt;/font&gt;" style="rounded=0;whiteSpace=wrap;html=1;fillColor=#e1d5e7;strokeColor=#0d0c0d;" parent="1" vertex="1">
          <mxGeometry x="-480" y="240" width="41" height="30" as="geometry" />
        </mxCell>
        <mxCell id="Awt-DgbT7jhiaurr5O_n-2" value="&lt;font face=&quot;Verdana&quot; style=&quot;font-size: 16px;&quot;&gt;&lt;b&gt;7&lt;/b&gt;&lt;/font&gt;" style="rounded=0;whiteSpace=wrap;html=1;fillColor=#e1d5e7;strokeColor=#0d0c0d;" parent="1" vertex="1">
          <mxGeometry x="-440" y="240" width="40" height="30" as="geometry" />
        </mxCell>
        <mxCell id="Awt-DgbT7jhiaurr5O_n-3" value="&lt;font face=&quot;Verdana&quot;&gt;&lt;span style=&quot;font-size: 16px;&quot;&gt;&lt;b&gt;7&lt;/b&gt;&lt;/span&gt;&lt;/font&gt;" style="rounded=0;whiteSpace=wrap;html=1;fillColor=#b1ddf0;strokeColor=#161717;" parent="1" vertex="1">
          <mxGeometry x="-640" y="100" width="40" height="140" as="geometry" />
        </mxCell>
        <mxCell id="Awt-DgbT7jhiaurr5O_n-4" value="&lt;font face=&quot;Verdana&quot;&gt;&lt;span style=&quot;font-size: 16px;&quot;&gt;&lt;b&gt;8&lt;/b&gt;&lt;/span&gt;&lt;/font&gt;" style="rounded=0;whiteSpace=wrap;html=1;fillColor=#b1ddf0;strokeColor=#161717;" parent="1" vertex="1">
          <mxGeometry x="-520" y="80" width="40" height="160" as="geometry" />
        </mxCell>
        <mxCell id="w6YqWCxdYL73jzeexSl1-2" value="&lt;font style=&quot;font-size: 16px;&quot; face=&quot;Verdana&quot;&gt;left&lt;br&gt;i&lt;br&gt;j&lt;br&gt;&lt;/font&gt;" style="text;html=1;align=center;verticalAlign=middle;resizable=0;points=[];autosize=1;strokeColor=none;fillColor=none;" vertex="1" parent="1">
          <mxGeometry x="-725" y="-10" width="50" height="70" as="geometry" />
        </mxCell>
        <mxCell id="w6YqWCxdYL73jzeexSl1-3" value="" style="endArrow=classic;html=1;rounded=0;" edge="1" parent="1">
          <mxGeometry width="50" height="50" relative="1" as="geometry">
            <mxPoint x="-420" y="40" as="sourcePoint" />
            <mxPoint x="-420" y="140" as="targetPoint" />
          </mxGeometry>
        </mxCell>
        <mxCell id="w6YqWCxdYL73jzeexSl1-4" value="&lt;font style=&quot;font-size: 16px;&quot; face=&quot;Verdana&quot;&gt;right&lt;/font&gt;" style="text;html=1;align=center;verticalAlign=middle;resizable=0;points=[];autosize=1;strokeColor=none;fillColor=none;" vertex="1" parent="1">
          <mxGeometry x="-450" y="9" width="60" height="30" as="geometry" />
        </mxCell>
        <mxCell id="w6YqWCxdYL73jzeexSl1-28" value="" style="endArrow=classic;html=1;rounded=0;exitX=0.503;exitY=1.207;exitDx=0;exitDy=0;exitPerimeter=0;" edge="1" parent="1" source="w6YqWCxdYL73jzeexSl1-2">
          <mxGeometry width="50" height="50" relative="1" as="geometry">
            <mxPoint x="-700" y="60" as="sourcePoint" />
            <mxPoint x="-700" y="160" as="targetPoint" />
          </mxGeometry>
        </mxCell>
        <mxCell id="w6YqWCxdYL73jzeexSl1-29" value="&lt;font face=&quot;Verdana&quot; style=&quot;font-size: 16px;&quot;&gt;&lt;b&gt;0&lt;/b&gt;&lt;/font&gt;" style="rounded=0;whiteSpace=wrap;html=1;fillColor=#e1d5e7;strokeColor=#0d0c0d;" vertex="1" parent="1">
          <mxGeometry x="-350" y="240" width="40" height="30" as="geometry" />
        </mxCell>
        <mxCell id="w6YqWCxdYL73jzeexSl1-30" value="&lt;font face=&quot;Verdana&quot; style=&quot;font-size: 16px;&quot;&gt;&lt;b&gt;3&lt;/b&gt;&lt;/font&gt;" style="rounded=0;whiteSpace=wrap;html=1;fillColor=#b1ddf0;strokeColor=#161717;" vertex="1" parent="1">
          <mxGeometry x="-310" y="180" width="40" height="60" as="geometry" />
        </mxCell>
        <mxCell id="w6YqWCxdYL73jzeexSl1-31" value="&lt;font face=&quot;Verdana&quot; style=&quot;font-size: 16px;&quot;&gt;&lt;b&gt;2&lt;/b&gt;&lt;/font&gt;" style="rounded=0;whiteSpace=wrap;html=1;fillColor=#b1ddf0;strokeColor=#161717;" vertex="1" parent="1">
          <mxGeometry x="-230" y="200" width="40" height="40" as="geometry" />
        </mxCell>
        <mxCell id="w6YqWCxdYL73jzeexSl1-32" value="&lt;font face=&quot;Verdana&quot; style=&quot;font-size: 16px;&quot;&gt;&lt;b&gt;1&lt;/b&gt;&lt;/font&gt;" style="rounded=0;whiteSpace=wrap;html=1;fillColor=#b1ddf0;strokeColor=#161717;" vertex="1" parent="1">
          <mxGeometry x="-110" y="220" width="40" height="20" as="geometry" />
        </mxCell>
        <mxCell id="w6YqWCxdYL73jzeexSl1-33" value="&lt;font face=&quot;Verdana&quot; style=&quot;font-size: 16px;&quot;&gt;&lt;b&gt;1&lt;/b&gt;&lt;/font&gt;" style="rounded=0;whiteSpace=wrap;html=1;fillColor=#e1d5e7;strokeColor=#0d0c0d;" vertex="1" parent="1">
          <mxGeometry x="-310" y="240" width="40" height="30" as="geometry" />
        </mxCell>
        <mxCell id="w6YqWCxdYL73jzeexSl1-34" value="&lt;font face=&quot;Verdana&quot; style=&quot;font-size: 16px;&quot;&gt;&lt;b&gt;2&lt;/b&gt;&lt;/font&gt;" style="rounded=0;whiteSpace=wrap;html=1;fillColor=#e1d5e7;strokeColor=#0d0c0d;" vertex="1" parent="1">
          <mxGeometry x="-270" y="240" width="40" height="30" as="geometry" />
        </mxCell>
        <mxCell id="w6YqWCxdYL73jzeexSl1-35" value="&lt;font face=&quot;Verdana&quot; style=&quot;font-size: 16px;&quot;&gt;&lt;b&gt;3&lt;/b&gt;&lt;/font&gt;" style="rounded=0;whiteSpace=wrap;html=1;fillColor=#e1d5e7;strokeColor=#0d0c0d;" vertex="1" parent="1">
          <mxGeometry x="-230" y="240" width="40" height="30" as="geometry" />
        </mxCell>
        <mxCell id="w6YqWCxdYL73jzeexSl1-36" value="&lt;font face=&quot;Verdana&quot; style=&quot;font-size: 16px;&quot;&gt;&lt;b&gt;4&lt;/b&gt;&lt;/font&gt;" style="rounded=0;whiteSpace=wrap;html=1;fillColor=#e1d5e7;strokeColor=#0d0c0d;" vertex="1" parent="1">
          <mxGeometry x="-190" y="240" width="40" height="30" as="geometry" />
        </mxCell>
        <mxCell id="w6YqWCxdYL73jzeexSl1-37" value="&lt;font face=&quot;Verdana&quot; style=&quot;font-size: 16px;&quot;&gt;&lt;b&gt;5&lt;/b&gt;&lt;/font&gt;" style="rounded=0;whiteSpace=wrap;html=1;fillColor=#e1d5e7;strokeColor=#0d0c0d;" vertex="1" parent="1">
          <mxGeometry x="-150" y="240" width="40" height="30" as="geometry" />
        </mxCell>
        <mxCell id="w6YqWCxdYL73jzeexSl1-38" value="&lt;font face=&quot;Verdana&quot; style=&quot;font-size: 16px;&quot;&gt;&lt;b&gt;4&lt;/b&gt;&lt;/font&gt;" style="rounded=0;whiteSpace=wrap;html=1;fillColor=#b1ddf0;strokeColor=#161717;" vertex="1" parent="1">
          <mxGeometry x="-350" y="160" width="40" height="80" as="geometry" />
        </mxCell>
        <mxCell id="w6YqWCxdYL73jzeexSl1-39" value="&lt;font face=&quot;Verdana&quot;&gt;&lt;span style=&quot;font-size: 16px;&quot;&gt;&lt;b&gt;5&lt;/b&gt;&lt;/span&gt;&lt;/font&gt;" style="rounded=0;whiteSpace=wrap;html=1;fillColor=#b1ddf0;strokeColor=#161717;" vertex="1" parent="1">
          <mxGeometry x="-70" y="140" width="40" height="100" as="geometry" />
        </mxCell>
        <mxCell id="w6YqWCxdYL73jzeexSl1-40" value="&lt;font face=&quot;Verdana&quot;&gt;&lt;span style=&quot;font-size: 16px;&quot;&gt;&lt;b&gt;9&lt;/b&gt;&lt;/span&gt;&lt;/font&gt;" style="rounded=0;whiteSpace=wrap;html=1;fillColor=#b1ddf0;strokeColor=#161717;" vertex="1" parent="1">
          <mxGeometry x="-190" y="60" width="40" height="180" as="geometry" />
        </mxCell>
        <mxCell id="w6YqWCxdYL73jzeexSl1-41" value="&lt;font face=&quot;Verdana&quot; style=&quot;font-size: 16px;&quot;&gt;&lt;b&gt;6&lt;/b&gt;&lt;/font&gt;" style="rounded=0;whiteSpace=wrap;html=1;fillColor=#e1d5e7;strokeColor=#0d0c0d;" vertex="1" parent="1">
          <mxGeometry x="-110" y="240" width="41" height="30" as="geometry" />
        </mxCell>
        <mxCell id="w6YqWCxdYL73jzeexSl1-42" value="&lt;font face=&quot;Verdana&quot; style=&quot;font-size: 16px;&quot;&gt;&lt;b&gt;7&lt;/b&gt;&lt;/font&gt;" style="rounded=0;whiteSpace=wrap;html=1;fillColor=#e1d5e7;strokeColor=#0d0c0d;" vertex="1" parent="1">
          <mxGeometry x="-70" y="240" width="40" height="30" as="geometry" />
        </mxCell>
        <mxCell id="w6YqWCxdYL73jzeexSl1-43" value="&lt;font face=&quot;Verdana&quot;&gt;&lt;span style=&quot;font-size: 16px;&quot;&gt;&lt;b&gt;7&lt;/b&gt;&lt;/span&gt;&lt;/font&gt;" style="rounded=0;whiteSpace=wrap;html=1;fillColor=#b1ddf0;strokeColor=#161717;" vertex="1" parent="1">
          <mxGeometry x="-270" y="100" width="40" height="140" as="geometry" />
        </mxCell>
        <mxCell id="w6YqWCxdYL73jzeexSl1-44" value="&lt;font face=&quot;Verdana&quot;&gt;&lt;span style=&quot;font-size: 16px;&quot;&gt;&lt;b&gt;8&lt;/b&gt;&lt;/span&gt;&lt;/font&gt;" style="rounded=0;whiteSpace=wrap;html=1;fillColor=#b1ddf0;strokeColor=#161717;" vertex="1" parent="1">
          <mxGeometry x="-150" y="80" width="40" height="160" as="geometry" />
        </mxCell>
        <mxCell id="w6YqWCxdYL73jzeexSl1-45" value="&lt;font style=&quot;font-size: 16px;&quot; face=&quot;Verdana&quot;&gt;left&lt;br&gt;&lt;/font&gt;" style="text;html=1;align=center;verticalAlign=middle;resizable=0;points=[];autosize=1;strokeColor=none;fillColor=none;" vertex="1" parent="1">
          <mxGeometry x="-355" y="10" width="50" height="30" as="geometry" />
        </mxCell>
        <mxCell id="w6YqWCxdYL73jzeexSl1-46" value="" style="endArrow=classic;html=1;rounded=0;" edge="1" parent="1">
          <mxGeometry width="50" height="50" relative="1" as="geometry">
            <mxPoint x="-50" y="40" as="sourcePoint" />
            <mxPoint x="-50" y="140" as="targetPoint" />
          </mxGeometry>
        </mxCell>
        <mxCell id="w6YqWCxdYL73jzeexSl1-47" value="&lt;font style=&quot;font-size: 16px;&quot; face=&quot;Verdana&quot;&gt;right&lt;/font&gt;" style="text;html=1;align=center;verticalAlign=middle;resizable=0;points=[];autosize=1;strokeColor=none;fillColor=none;" vertex="1" parent="1">
          <mxGeometry x="-80" y="9" width="60" height="30" as="geometry" />
        </mxCell>
        <mxCell id="w6YqWCxdYL73jzeexSl1-48" value="" style="endArrow=classic;html=1;rounded=0;exitX=0.503;exitY=1.207;exitDx=0;exitDy=0;exitPerimeter=0;" edge="1" parent="1" source="w6YqWCxdYL73jzeexSl1-45">
          <mxGeometry width="50" height="50" relative="1" as="geometry">
            <mxPoint x="-330" y="60" as="sourcePoint" />
            <mxPoint x="-330" y="160" as="targetPoint" />
          </mxGeometry>
        </mxCell>
        <mxCell id="w6YqWCxdYL73jzeexSl1-49" value="&lt;font style=&quot;font-size: 16px;&quot; face=&quot;Verdana&quot;&gt;i&lt;br&gt;j&lt;br&gt;&lt;/font&gt;" style="text;html=1;align=center;verticalAlign=middle;resizable=0;points=[];autosize=1;strokeColor=none;fillColor=none;" vertex="1" parent="1">
          <mxGeometry x="-265" y="-11" width="30" height="50" as="geometry" />
        </mxCell>
        <mxCell id="w6YqWCxdYL73jzeexSl1-50" value="" style="endArrow=classic;html=1;rounded=0;entryX=0.5;entryY=0;entryDx=0;entryDy=0;" edge="1" parent="1" target="w6YqWCxdYL73jzeexSl1-43">
          <mxGeometry width="50" height="50" relative="1" as="geometry">
            <mxPoint x="-250" y="50" as="sourcePoint" />
            <mxPoint x="-320" y="190" as="targetPoint" />
          </mxGeometry>
        </mxCell>
        <mxCell id="w6YqWCxdYL73jzeexSl1-52" value="&lt;font face=&quot;Verdana&quot; style=&quot;font-size: 16px;&quot;&gt;i, j 同步前进，不发生交换&lt;/font&gt;" style="text;html=1;align=center;verticalAlign=middle;resizable=0;points=[];autosize=1;strokeColor=none;fillColor=none;" vertex="1" parent="1">
          <mxGeometry x="-665" y="290" width="210" height="30" as="geometry" />
        </mxCell>
        <mxCell id="w6YqWCxdYL73jzeexSl1-53" value="&lt;font face=&quot;Verdana&quot; style=&quot;font-size: 16px;&quot;&gt;i 找到了 7，j 继续前进&lt;/font&gt;" style="text;html=1;align=center;verticalAlign=middle;resizable=0;points=[];autosize=1;strokeColor=none;fillColor=none;" vertex="1" parent="1">
          <mxGeometry x="-285" y="290" width="190" height="30" as="geometry" />
        </mxCell>
        <mxCell id="w6YqWCxdYL73jzeexSl1-54" value="&lt;font face=&quot;Verdana&quot; style=&quot;font-size: 16px;&quot;&gt;&lt;b&gt;0&lt;/b&gt;&lt;/font&gt;" style="rounded=0;whiteSpace=wrap;html=1;fillColor=#e1d5e7;strokeColor=#0d0c0d;" vertex="1" parent="1">
          <mxGeometry x="20" y="240" width="40" height="30" as="geometry" />
        </mxCell>
        <mxCell id="w6YqWCxdYL73jzeexSl1-55" value="&lt;font face=&quot;Verdana&quot; style=&quot;font-size: 16px;&quot;&gt;&lt;b&gt;3&lt;/b&gt;&lt;/font&gt;" style="rounded=0;whiteSpace=wrap;html=1;fillColor=#b1ddf0;strokeColor=#161717;" vertex="1" parent="1">
          <mxGeometry x="60" y="180" width="40" height="60" as="geometry" />
        </mxCell>
        <mxCell id="w6YqWCxdYL73jzeexSl1-56" value="&lt;font face=&quot;Verdana&quot; style=&quot;font-size: 16px;&quot;&gt;&lt;b&gt;2&lt;/b&gt;&lt;/font&gt;" style="rounded=0;whiteSpace=wrap;html=1;fillColor=#b1ddf0;strokeColor=#161717;" vertex="1" parent="1">
          <mxGeometry x="100" y="200" width="40" height="40" as="geometry" />
        </mxCell>
        <mxCell id="w6YqWCxdYL73jzeexSl1-57" value="&lt;font face=&quot;Verdana&quot; style=&quot;font-size: 16px;&quot;&gt;&lt;b&gt;1&lt;/b&gt;&lt;/font&gt;" style="rounded=0;whiteSpace=wrap;html=1;fillColor=#b1ddf0;strokeColor=#161717;" vertex="1" parent="1">
          <mxGeometry x="260" y="220" width="40" height="20" as="geometry" />
        </mxCell>
        <mxCell id="w6YqWCxdYL73jzeexSl1-58" value="&lt;font face=&quot;Verdana&quot; style=&quot;font-size: 16px;&quot;&gt;&lt;b&gt;1&lt;/b&gt;&lt;/font&gt;" style="rounded=0;whiteSpace=wrap;html=1;fillColor=#e1d5e7;strokeColor=#0d0c0d;" vertex="1" parent="1">
          <mxGeometry x="60" y="240" width="40" height="30" as="geometry" />
        </mxCell>
        <mxCell id="w6YqWCxdYL73jzeexSl1-59" value="&lt;font face=&quot;Verdana&quot; style=&quot;font-size: 16px;&quot;&gt;&lt;b&gt;2&lt;/b&gt;&lt;/font&gt;" style="rounded=0;whiteSpace=wrap;html=1;fillColor=#e1d5e7;strokeColor=#0d0c0d;" vertex="1" parent="1">
          <mxGeometry x="100" y="240" width="40" height="30" as="geometry" />
        </mxCell>
        <mxCell id="w6YqWCxdYL73jzeexSl1-60" value="&lt;font face=&quot;Verdana&quot; style=&quot;font-size: 16px;&quot;&gt;&lt;b&gt;3&lt;/b&gt;&lt;/font&gt;" style="rounded=0;whiteSpace=wrap;html=1;fillColor=#e1d5e7;strokeColor=#0d0c0d;" vertex="1" parent="1">
          <mxGeometry x="140" y="240" width="40" height="30" as="geometry" />
        </mxCell>
        <mxCell id="w6YqWCxdYL73jzeexSl1-61" value="&lt;font face=&quot;Verdana&quot; style=&quot;font-size: 16px;&quot;&gt;&lt;b&gt;4&lt;/b&gt;&lt;/font&gt;" style="rounded=0;whiteSpace=wrap;html=1;fillColor=#e1d5e7;strokeColor=#0d0c0d;" vertex="1" parent="1">
          <mxGeometry x="180" y="240" width="40" height="30" as="geometry" />
        </mxCell>
        <mxCell id="w6YqWCxdYL73jzeexSl1-62" value="&lt;font face=&quot;Verdana&quot; style=&quot;font-size: 16px;&quot;&gt;&lt;b&gt;5&lt;/b&gt;&lt;/font&gt;" style="rounded=0;whiteSpace=wrap;html=1;fillColor=#e1d5e7;strokeColor=#0d0c0d;" vertex="1" parent="1">
          <mxGeometry x="220" y="240" width="40" height="30" as="geometry" />
        </mxCell>
        <mxCell id="w6YqWCxdYL73jzeexSl1-63" value="&lt;font face=&quot;Verdana&quot; style=&quot;font-size: 16px;&quot;&gt;&lt;b&gt;4&lt;/b&gt;&lt;/font&gt;" style="rounded=0;whiteSpace=wrap;html=1;fillColor=#b1ddf0;strokeColor=#161717;" vertex="1" parent="1">
          <mxGeometry x="20" y="160" width="40" height="80" as="geometry" />
        </mxCell>
        <mxCell id="w6YqWCxdYL73jzeexSl1-64" value="&lt;font face=&quot;Verdana&quot;&gt;&lt;span style=&quot;font-size: 16px;&quot;&gt;&lt;b&gt;5&lt;/b&gt;&lt;/span&gt;&lt;/font&gt;" style="rounded=0;whiteSpace=wrap;html=1;fillColor=#b1ddf0;strokeColor=#161717;" vertex="1" parent="1">
          <mxGeometry x="300" y="140" width="40" height="100" as="geometry" />
        </mxCell>
        <mxCell id="w6YqWCxdYL73jzeexSl1-65" value="&lt;font face=&quot;Verdana&quot;&gt;&lt;span style=&quot;font-size: 16px;&quot;&gt;&lt;b&gt;9&lt;/b&gt;&lt;/span&gt;&lt;/font&gt;" style="rounded=0;whiteSpace=wrap;html=1;fillColor=#b1ddf0;strokeColor=#161717;" vertex="1" parent="1">
          <mxGeometry x="180" y="60" width="40" height="180" as="geometry" />
        </mxCell>
        <mxCell id="w6YqWCxdYL73jzeexSl1-66" value="&lt;font face=&quot;Verdana&quot; style=&quot;font-size: 16px;&quot;&gt;&lt;b&gt;6&lt;/b&gt;&lt;/font&gt;" style="rounded=0;whiteSpace=wrap;html=1;fillColor=#e1d5e7;strokeColor=#0d0c0d;" vertex="1" parent="1">
          <mxGeometry x="260" y="240" width="41" height="30" as="geometry" />
        </mxCell>
        <mxCell id="w6YqWCxdYL73jzeexSl1-67" value="&lt;font face=&quot;Verdana&quot; style=&quot;font-size: 16px;&quot;&gt;&lt;b&gt;7&lt;/b&gt;&lt;/font&gt;" style="rounded=0;whiteSpace=wrap;html=1;fillColor=#e1d5e7;strokeColor=#0d0c0d;" vertex="1" parent="1">
          <mxGeometry x="300" y="240" width="40" height="30" as="geometry" />
        </mxCell>
        <mxCell id="w6YqWCxdYL73jzeexSl1-68" value="&lt;font face=&quot;Verdana&quot;&gt;&lt;span style=&quot;font-size: 16px;&quot;&gt;&lt;b&gt;7&lt;/b&gt;&lt;/span&gt;&lt;/font&gt;" style="rounded=0;whiteSpace=wrap;html=1;fillColor=#b1ddf0;strokeColor=#161717;" vertex="1" parent="1">
          <mxGeometry x="140" y="100" width="40" height="140" as="geometry" />
        </mxCell>
        <mxCell id="w6YqWCxdYL73jzeexSl1-69" value="&lt;font face=&quot;Verdana&quot;&gt;&lt;span style=&quot;font-size: 16px;&quot;&gt;&lt;b&gt;8&lt;/b&gt;&lt;/span&gt;&lt;/font&gt;" style="rounded=0;whiteSpace=wrap;html=1;fillColor=#b1ddf0;strokeColor=#161717;" vertex="1" parent="1">
          <mxGeometry x="220" y="80" width="40" height="160" as="geometry" />
        </mxCell>
        <mxCell id="w6YqWCxdYL73jzeexSl1-70" value="&lt;font style=&quot;font-size: 16px;&quot; face=&quot;Verdana&quot;&gt;left&lt;br&gt;&lt;/font&gt;" style="text;html=1;align=center;verticalAlign=middle;resizable=0;points=[];autosize=1;strokeColor=none;fillColor=none;" vertex="1" parent="1">
          <mxGeometry x="15" y="10" width="50" height="30" as="geometry" />
        </mxCell>
        <mxCell id="w6YqWCxdYL73jzeexSl1-71" value="" style="endArrow=classic;html=1;rounded=0;" edge="1" parent="1">
          <mxGeometry width="50" height="50" relative="1" as="geometry">
            <mxPoint x="320" y="40" as="sourcePoint" />
            <mxPoint x="320" y="140" as="targetPoint" />
          </mxGeometry>
        </mxCell>
        <mxCell id="w6YqWCxdYL73jzeexSl1-72" value="&lt;font style=&quot;font-size: 16px;&quot; face=&quot;Verdana&quot;&gt;right&lt;/font&gt;" style="text;html=1;align=center;verticalAlign=middle;resizable=0;points=[];autosize=1;strokeColor=none;fillColor=none;" vertex="1" parent="1">
          <mxGeometry x="290" y="9" width="60" height="30" as="geometry" />
        </mxCell>
        <mxCell id="w6YqWCxdYL73jzeexSl1-73" value="" style="endArrow=classic;html=1;rounded=0;exitX=0.503;exitY=1.207;exitDx=0;exitDy=0;exitPerimeter=0;" edge="1" parent="1" source="w6YqWCxdYL73jzeexSl1-70">
          <mxGeometry width="50" height="50" relative="1" as="geometry">
            <mxPoint x="40" y="60" as="sourcePoint" />
            <mxPoint x="40" y="160" as="targetPoint" />
          </mxGeometry>
        </mxCell>
        <mxCell id="w6YqWCxdYL73jzeexSl1-74" value="&lt;font style=&quot;font-size: 16px;&quot; face=&quot;Verdana&quot;&gt;&lt;br&gt;&lt;/font&gt;" style="text;html=1;align=center;verticalAlign=middle;resizable=0;points=[];autosize=1;strokeColor=none;fillColor=none;" vertex="1" parent="1">
          <mxGeometry x="110" y="-1" width="20" height="30" as="geometry" />
        </mxCell>
        <mxCell id="w6YqWCxdYL73jzeexSl1-76" value="&lt;font face=&quot;Verdana&quot; style=&quot;font-size: 16px;&quot;&gt;i j 交换元素&lt;/font&gt;" style="text;html=1;align=center;verticalAlign=middle;resizable=0;points=[];autosize=1;strokeColor=none;fillColor=none;" vertex="1" parent="1">
          <mxGeometry x="125" y="290" width="110" height="30" as="geometry" />
        </mxCell>
        <mxCell id="w6YqWCxdYL73jzeexSl1-78" value="" style="endArrow=classic;html=1;rounded=0;entryX=0.25;entryY=0;entryDx=0;entryDy=0;" edge="1" parent="1">
          <mxGeometry width="50" height="50" relative="1" as="geometry">
            <mxPoint x="119" y="50" as="sourcePoint" />
            <mxPoint x="119" y="200" as="targetPoint" />
          </mxGeometry>
        </mxCell>
        <mxCell id="w6YqWCxdYL73jzeexSl1-79" value="" style="endArrow=classic;html=1;rounded=0;entryX=0.5;entryY=0;entryDx=0;entryDy=0;" edge="1" parent="1" target="w6YqWCxdYL73jzeexSl1-68">
          <mxGeometry width="50" height="50" relative="1" as="geometry">
            <mxPoint x="160" y="50" as="sourcePoint" />
            <mxPoint x="-60" y="170" as="targetPoint" />
          </mxGeometry>
        </mxCell>
        <mxCell id="w6YqWCxdYL73jzeexSl1-80" value="&lt;font style=&quot;font-size: 16px;&quot; face=&quot;Verdana&quot;&gt;i&lt;br&gt;&lt;/font&gt;" style="text;html=1;align=center;verticalAlign=middle;resizable=0;points=[];autosize=1;strokeColor=none;fillColor=none;" vertex="1" parent="1">
          <mxGeometry x="104" y="11" width="30" height="30" as="geometry" />
        </mxCell>
        <mxCell id="w6YqWCxdYL73jzeexSl1-81" value="&lt;font style=&quot;font-size: 16px;&quot; face=&quot;Verdana&quot;&gt;j&lt;br&gt;&lt;/font&gt;" style="text;html=1;align=center;verticalAlign=middle;resizable=0;points=[];autosize=1;strokeColor=none;fillColor=none;" vertex="1" parent="1">
          <mxGeometry x="144" y="11" width="30" height="30" as="geometry" />
        </mxCell>
        <mxCell id="w6YqWCxdYL73jzeexSl1-82" value="&lt;font face=&quot;Verdana&quot; style=&quot;font-size: 16px;&quot;&gt;&lt;b&gt;0&lt;/b&gt;&lt;/font&gt;" style="rounded=0;whiteSpace=wrap;html=1;fillColor=#e1d5e7;strokeColor=#0d0c0d;" vertex="1" parent="1">
          <mxGeometry x="-720" y="590" width="40" height="30" as="geometry" />
        </mxCell>
        <mxCell id="w6YqWCxdYL73jzeexSl1-83" value="&lt;font face=&quot;Verdana&quot; style=&quot;font-size: 16px;&quot;&gt;&lt;b&gt;3&lt;/b&gt;&lt;/font&gt;" style="rounded=0;whiteSpace=wrap;html=1;fillColor=#b1ddf0;strokeColor=#161717;" vertex="1" parent="1">
          <mxGeometry x="-680" y="530" width="40" height="60" as="geometry" />
        </mxCell>
        <mxCell id="w6YqWCxdYL73jzeexSl1-84" value="&lt;font face=&quot;Verdana&quot; style=&quot;font-size: 16px;&quot;&gt;&lt;b&gt;2&lt;/b&gt;&lt;/font&gt;" style="rounded=0;whiteSpace=wrap;html=1;fillColor=#b1ddf0;strokeColor=#161717;" vertex="1" parent="1">
          <mxGeometry x="-640" y="550" width="40" height="40" as="geometry" />
        </mxCell>
        <mxCell id="w6YqWCxdYL73jzeexSl1-85" value="&lt;font face=&quot;Verdana&quot; style=&quot;font-size: 16px;&quot;&gt;&lt;b&gt;1&lt;/b&gt;&lt;/font&gt;" style="rounded=0;whiteSpace=wrap;html=1;fillColor=#b1ddf0;strokeColor=#161717;" vertex="1" parent="1">
          <mxGeometry x="-600" y="570" width="40" height="20" as="geometry" />
        </mxCell>
        <mxCell id="w6YqWCxdYL73jzeexSl1-86" value="&lt;font face=&quot;Verdana&quot; style=&quot;font-size: 16px;&quot;&gt;&lt;b&gt;1&lt;/b&gt;&lt;/font&gt;" style="rounded=0;whiteSpace=wrap;html=1;fillColor=#e1d5e7;strokeColor=#0d0c0d;" vertex="1" parent="1">
          <mxGeometry x="-680" y="590" width="40" height="30" as="geometry" />
        </mxCell>
        <mxCell id="w6YqWCxdYL73jzeexSl1-87" value="&lt;font face=&quot;Verdana&quot; style=&quot;font-size: 16px;&quot;&gt;&lt;b&gt;2&lt;/b&gt;&lt;/font&gt;" style="rounded=0;whiteSpace=wrap;html=1;fillColor=#e1d5e7;strokeColor=#0d0c0d;" vertex="1" parent="1">
          <mxGeometry x="-640" y="590" width="40" height="30" as="geometry" />
        </mxCell>
        <mxCell id="w6YqWCxdYL73jzeexSl1-88" value="&lt;font face=&quot;Verdana&quot; style=&quot;font-size: 16px;&quot;&gt;&lt;b&gt;3&lt;/b&gt;&lt;/font&gt;" style="rounded=0;whiteSpace=wrap;html=1;fillColor=#e1d5e7;strokeColor=#0d0c0d;" vertex="1" parent="1">
          <mxGeometry x="-600" y="590" width="40" height="30" as="geometry" />
        </mxCell>
        <mxCell id="w6YqWCxdYL73jzeexSl1-89" value="&lt;font face=&quot;Verdana&quot; style=&quot;font-size: 16px;&quot;&gt;&lt;b&gt;4&lt;/b&gt;&lt;/font&gt;" style="rounded=0;whiteSpace=wrap;html=1;fillColor=#e1d5e7;strokeColor=#0d0c0d;" vertex="1" parent="1">
          <mxGeometry x="-560" y="590" width="40" height="30" as="geometry" />
        </mxCell>
        <mxCell id="w6YqWCxdYL73jzeexSl1-90" value="&lt;font face=&quot;Verdana&quot; style=&quot;font-size: 16px;&quot;&gt;&lt;b&gt;5&lt;/b&gt;&lt;/font&gt;" style="rounded=0;whiteSpace=wrap;html=1;fillColor=#e1d5e7;strokeColor=#0d0c0d;" vertex="1" parent="1">
          <mxGeometry x="-520" y="590" width="40" height="30" as="geometry" />
        </mxCell>
        <mxCell id="w6YqWCxdYL73jzeexSl1-91" value="&lt;font face=&quot;Verdana&quot; style=&quot;font-size: 16px;&quot;&gt;&lt;b&gt;4&lt;/b&gt;&lt;/font&gt;" style="rounded=0;whiteSpace=wrap;html=1;fillColor=#b1ddf0;strokeColor=#161717;" vertex="1" parent="1">
          <mxGeometry x="-720" y="510" width="40" height="80" as="geometry" />
        </mxCell>
        <mxCell id="w6YqWCxdYL73jzeexSl1-92" value="&lt;font face=&quot;Verdana&quot;&gt;&lt;span style=&quot;font-size: 16px;&quot;&gt;&lt;b&gt;5&lt;/b&gt;&lt;/span&gt;&lt;/font&gt;" style="rounded=0;whiteSpace=wrap;html=1;fillColor=#b1ddf0;strokeColor=#161717;" vertex="1" parent="1">
          <mxGeometry x="-440" y="490" width="40" height="100" as="geometry" />
        </mxCell>
        <mxCell id="w6YqWCxdYL73jzeexSl1-93" value="&lt;font face=&quot;Verdana&quot;&gt;&lt;span style=&quot;font-size: 16px;&quot;&gt;&lt;b&gt;9&lt;/b&gt;&lt;/span&gt;&lt;/font&gt;" style="rounded=0;whiteSpace=wrap;html=1;fillColor=#b1ddf0;strokeColor=#161717;" vertex="1" parent="1">
          <mxGeometry x="-560" y="410" width="40" height="180" as="geometry" />
        </mxCell>
        <mxCell id="w6YqWCxdYL73jzeexSl1-94" value="&lt;font face=&quot;Verdana&quot; style=&quot;font-size: 16px;&quot;&gt;&lt;b&gt;6&lt;/b&gt;&lt;/font&gt;" style="rounded=0;whiteSpace=wrap;html=1;fillColor=#e1d5e7;strokeColor=#0d0c0d;" vertex="1" parent="1">
          <mxGeometry x="-480" y="590" width="41" height="30" as="geometry" />
        </mxCell>
        <mxCell id="w6YqWCxdYL73jzeexSl1-95" value="&lt;font face=&quot;Verdana&quot; style=&quot;font-size: 16px;&quot;&gt;&lt;b&gt;7&lt;/b&gt;&lt;/font&gt;" style="rounded=0;whiteSpace=wrap;html=1;fillColor=#e1d5e7;strokeColor=#0d0c0d;" vertex="1" parent="1">
          <mxGeometry x="-440" y="590" width="40" height="30" as="geometry" />
        </mxCell>
        <mxCell id="w6YqWCxdYL73jzeexSl1-96" value="&lt;font face=&quot;Verdana&quot;&gt;&lt;span style=&quot;font-size: 16px;&quot;&gt;&lt;b&gt;7&lt;/b&gt;&lt;/span&gt;&lt;/font&gt;" style="rounded=0;whiteSpace=wrap;html=1;fillColor=#b1ddf0;strokeColor=#161717;" vertex="1" parent="1">
          <mxGeometry x="-480" y="450" width="40" height="140" as="geometry" />
        </mxCell>
        <mxCell id="w6YqWCxdYL73jzeexSl1-97" value="&lt;font face=&quot;Verdana&quot;&gt;&lt;span style=&quot;font-size: 16px;&quot;&gt;&lt;b&gt;8&lt;/b&gt;&lt;/span&gt;&lt;/font&gt;" style="rounded=0;whiteSpace=wrap;html=1;fillColor=#b1ddf0;strokeColor=#161717;" vertex="1" parent="1">
          <mxGeometry x="-520" y="430" width="40" height="160" as="geometry" />
        </mxCell>
        <mxCell id="w6YqWCxdYL73jzeexSl1-98" value="&lt;font style=&quot;font-size: 16px;&quot; face=&quot;Verdana&quot;&gt;left&lt;br&gt;&lt;/font&gt;" style="text;html=1;align=center;verticalAlign=middle;resizable=0;points=[];autosize=1;strokeColor=none;fillColor=none;" vertex="1" parent="1">
          <mxGeometry x="-725" y="360" width="50" height="30" as="geometry" />
        </mxCell>
        <mxCell id="w6YqWCxdYL73jzeexSl1-99" value="" style="endArrow=classic;html=1;rounded=0;" edge="1" parent="1">
          <mxGeometry width="50" height="50" relative="1" as="geometry">
            <mxPoint x="-420" y="390" as="sourcePoint" />
            <mxPoint x="-420" y="490" as="targetPoint" />
          </mxGeometry>
        </mxCell>
        <mxCell id="w6YqWCxdYL73jzeexSl1-100" value="&lt;font style=&quot;font-size: 16px;&quot; face=&quot;Verdana&quot;&gt;right&lt;/font&gt;" style="text;html=1;align=center;verticalAlign=middle;resizable=0;points=[];autosize=1;strokeColor=none;fillColor=none;" vertex="1" parent="1">
          <mxGeometry x="-450" y="359" width="60" height="30" as="geometry" />
        </mxCell>
        <mxCell id="w6YqWCxdYL73jzeexSl1-101" value="" style="endArrow=classic;html=1;rounded=0;exitX=0.503;exitY=1.207;exitDx=0;exitDy=0;exitPerimeter=0;" edge="1" parent="1" source="w6YqWCxdYL73jzeexSl1-98">
          <mxGeometry width="50" height="50" relative="1" as="geometry">
            <mxPoint x="-700" y="410" as="sourcePoint" />
            <mxPoint x="-700" y="510" as="targetPoint" />
          </mxGeometry>
        </mxCell>
        <mxCell id="w6YqWCxdYL73jzeexSl1-103" value="&lt;font face=&quot;Verdana&quot; style=&quot;font-size: 16px;&quot;&gt;j 到达最右边停止，i 和基准点元素交换&lt;/font&gt;" style="text;html=1;align=center;verticalAlign=middle;resizable=0;points=[];autosize=1;strokeColor=none;fillColor=none;" vertex="1" parent="1">
          <mxGeometry x="-710" y="640" width="300" height="30" as="geometry" />
        </mxCell>
        <mxCell id="w6YqWCxdYL73jzeexSl1-106" value="&lt;font style=&quot;font-size: 16px;&quot; face=&quot;Verdana&quot;&gt;i&lt;br&gt;&lt;/font&gt;" style="text;html=1;align=center;verticalAlign=middle;resizable=0;points=[];autosize=1;strokeColor=none;fillColor=none;" vertex="1" parent="1">
          <mxGeometry x="-556" y="350" width="30" height="30" as="geometry" />
        </mxCell>
        <mxCell id="w6YqWCxdYL73jzeexSl1-109" value="" style="endArrow=classic;html=1;rounded=0;" edge="1" parent="1">
          <mxGeometry width="50" height="50" relative="1" as="geometry">
            <mxPoint x="-540" y="380" as="sourcePoint" />
            <mxPoint x="-540" y="410" as="targetPoint" />
          </mxGeometry>
        </mxCell>
        <mxCell id="w6YqWCxdYL73jzeexSl1-110" value="&lt;font face=&quot;Verdana&quot; style=&quot;font-size: 16px;&quot;&gt;&lt;b&gt;0&lt;/b&gt;&lt;/font&gt;" style="rounded=0;whiteSpace=wrap;html=1;fillColor=#e1d5e7;strokeColor=#0d0c0d;" vertex="1" parent="1">
          <mxGeometry x="-350" y="590" width="40" height="30" as="geometry" />
        </mxCell>
        <mxCell id="w6YqWCxdYL73jzeexSl1-111" value="&lt;font face=&quot;Verdana&quot; style=&quot;font-size: 16px;&quot;&gt;&lt;b&gt;3&lt;/b&gt;&lt;/font&gt;" style="rounded=0;whiteSpace=wrap;html=1;fillColor=#b1ddf0;strokeColor=#161717;" vertex="1" parent="1">
          <mxGeometry x="-310" y="530" width="40" height="60" as="geometry" />
        </mxCell>
        <mxCell id="w6YqWCxdYL73jzeexSl1-112" value="&lt;font face=&quot;Verdana&quot; style=&quot;font-size: 16px;&quot;&gt;&lt;b&gt;2&lt;/b&gt;&lt;/font&gt;" style="rounded=0;whiteSpace=wrap;html=1;fillColor=#b1ddf0;strokeColor=#161717;" vertex="1" parent="1">
          <mxGeometry x="-270" y="550" width="40" height="40" as="geometry" />
        </mxCell>
        <mxCell id="w6YqWCxdYL73jzeexSl1-113" value="&lt;font face=&quot;Verdana&quot; style=&quot;font-size: 16px;&quot;&gt;&lt;b&gt;1&lt;/b&gt;&lt;/font&gt;" style="rounded=0;whiteSpace=wrap;html=1;fillColor=#b1ddf0;strokeColor=#161717;" vertex="1" parent="1">
          <mxGeometry x="-230" y="570" width="40" height="20" as="geometry" />
        </mxCell>
        <mxCell id="w6YqWCxdYL73jzeexSl1-114" value="&lt;font face=&quot;Verdana&quot; style=&quot;font-size: 16px;&quot;&gt;&lt;b&gt;1&lt;/b&gt;&lt;/font&gt;" style="rounded=0;whiteSpace=wrap;html=1;fillColor=#e1d5e7;strokeColor=#0d0c0d;" vertex="1" parent="1">
          <mxGeometry x="-310" y="590" width="40" height="30" as="geometry" />
        </mxCell>
        <mxCell id="w6YqWCxdYL73jzeexSl1-115" value="&lt;font face=&quot;Verdana&quot; style=&quot;font-size: 16px;&quot;&gt;&lt;b&gt;2&lt;/b&gt;&lt;/font&gt;" style="rounded=0;whiteSpace=wrap;html=1;fillColor=#e1d5e7;strokeColor=#0d0c0d;" vertex="1" parent="1">
          <mxGeometry x="-270" y="590" width="40" height="30" as="geometry" />
        </mxCell>
        <mxCell id="w6YqWCxdYL73jzeexSl1-116" value="&lt;font face=&quot;Verdana&quot; style=&quot;font-size: 16px;&quot;&gt;&lt;b&gt;3&lt;/b&gt;&lt;/font&gt;" style="rounded=0;whiteSpace=wrap;html=1;fillColor=#e1d5e7;strokeColor=#0d0c0d;" vertex="1" parent="1">
          <mxGeometry x="-230" y="590" width="40" height="30" as="geometry" />
        </mxCell>
        <mxCell id="w6YqWCxdYL73jzeexSl1-117" value="&lt;font face=&quot;Verdana&quot; style=&quot;font-size: 16px;&quot;&gt;&lt;b&gt;4&lt;/b&gt;&lt;/font&gt;" style="rounded=0;whiteSpace=wrap;html=1;fillColor=#e1d5e7;strokeColor=#0d0c0d;" vertex="1" parent="1">
          <mxGeometry x="-190" y="590" width="40" height="30" as="geometry" />
        </mxCell>
        <mxCell id="w6YqWCxdYL73jzeexSl1-118" value="&lt;font face=&quot;Verdana&quot; style=&quot;font-size: 16px;&quot;&gt;&lt;b&gt;5&lt;/b&gt;&lt;/font&gt;" style="rounded=0;whiteSpace=wrap;html=1;fillColor=#e1d5e7;strokeColor=#0d0c0d;" vertex="1" parent="1">
          <mxGeometry x="-150" y="590" width="40" height="30" as="geometry" />
        </mxCell>
        <mxCell id="w6YqWCxdYL73jzeexSl1-119" value="&lt;font face=&quot;Verdana&quot; style=&quot;font-size: 16px;&quot;&gt;&lt;b&gt;4&lt;/b&gt;&lt;/font&gt;" style="rounded=0;whiteSpace=wrap;html=1;fillColor=#b1ddf0;strokeColor=#161717;" vertex="1" parent="1">
          <mxGeometry x="-350" y="510" width="40" height="80" as="geometry" />
        </mxCell>
        <mxCell id="w6YqWCxdYL73jzeexSl1-120" value="&lt;font face=&quot;Verdana&quot;&gt;&lt;span style=&quot;font-size: 16px;&quot;&gt;&lt;b&gt;5&lt;/b&gt;&lt;/span&gt;&lt;/font&gt;" style="rounded=0;whiteSpace=wrap;html=1;fillColor=#bac8d3;strokeColor=#050505;" vertex="1" parent="1">
          <mxGeometry x="-190" y="490" width="40" height="100" as="geometry" />
        </mxCell>
        <mxCell id="w6YqWCxdYL73jzeexSl1-121" value="&lt;font face=&quot;Verdana&quot;&gt;&lt;span style=&quot;font-size: 16px;&quot;&gt;&lt;b&gt;9&lt;/b&gt;&lt;/span&gt;&lt;/font&gt;" style="rounded=0;whiteSpace=wrap;html=1;fillColor=#b1ddf0;strokeColor=#161717;" vertex="1" parent="1">
          <mxGeometry x="-70" y="410" width="40" height="180" as="geometry" />
        </mxCell>
        <mxCell id="w6YqWCxdYL73jzeexSl1-122" value="&lt;font face=&quot;Verdana&quot; style=&quot;font-size: 16px;&quot;&gt;&lt;b&gt;6&lt;/b&gt;&lt;/font&gt;" style="rounded=0;whiteSpace=wrap;html=1;fillColor=#e1d5e7;strokeColor=#0d0c0d;" vertex="1" parent="1">
          <mxGeometry x="-110" y="590" width="41" height="30" as="geometry" />
        </mxCell>
        <mxCell id="w6YqWCxdYL73jzeexSl1-123" value="&lt;font face=&quot;Verdana&quot; style=&quot;font-size: 16px;&quot;&gt;&lt;b&gt;7&lt;/b&gt;&lt;/font&gt;" style="rounded=0;whiteSpace=wrap;html=1;fillColor=#e1d5e7;strokeColor=#0d0c0d;" vertex="1" parent="1">
          <mxGeometry x="-70" y="590" width="40" height="30" as="geometry" />
        </mxCell>
        <mxCell id="w6YqWCxdYL73jzeexSl1-124" value="&lt;font face=&quot;Verdana&quot;&gt;&lt;span style=&quot;font-size: 16px;&quot;&gt;&lt;b&gt;7&lt;/b&gt;&lt;/span&gt;&lt;/font&gt;" style="rounded=0;whiteSpace=wrap;html=1;fillColor=#b1ddf0;strokeColor=#161717;" vertex="1" parent="1">
          <mxGeometry x="-110" y="450" width="40" height="140" as="geometry" />
        </mxCell>
        <mxCell id="w6YqWCxdYL73jzeexSl1-125" value="&lt;font face=&quot;Verdana&quot;&gt;&lt;span style=&quot;font-size: 16px;&quot;&gt;&lt;b&gt;8&lt;/b&gt;&lt;/span&gt;&lt;/font&gt;" style="rounded=0;whiteSpace=wrap;html=1;fillColor=#b1ddf0;strokeColor=#161717;" vertex="1" parent="1">
          <mxGeometry x="-150" y="430" width="40" height="160" as="geometry" />
        </mxCell>
        <mxCell id="w6YqWCxdYL73jzeexSl1-126" value="&lt;font style=&quot;font-size: 16px;&quot; face=&quot;Verdana&quot;&gt;left&lt;br&gt;&lt;/font&gt;" style="text;html=1;align=center;verticalAlign=middle;resizable=0;points=[];autosize=1;strokeColor=none;fillColor=none;" vertex="1" parent="1">
          <mxGeometry x="-355" y="360" width="50" height="30" as="geometry" />
        </mxCell>
        <mxCell id="w6YqWCxdYL73jzeexSl1-127" value="" style="endArrow=classic;html=1;rounded=0;" edge="1" parent="1">
          <mxGeometry width="50" height="50" relative="1" as="geometry">
            <mxPoint x="-50" y="390" as="sourcePoint" />
            <mxPoint x="-50" y="410" as="targetPoint" />
          </mxGeometry>
        </mxCell>
        <mxCell id="w6YqWCxdYL73jzeexSl1-128" value="&lt;font style=&quot;font-size: 16px;&quot; face=&quot;Verdana&quot;&gt;right&lt;/font&gt;" style="text;html=1;align=center;verticalAlign=middle;resizable=0;points=[];autosize=1;strokeColor=none;fillColor=none;" vertex="1" parent="1">
          <mxGeometry x="-80" y="359" width="60" height="30" as="geometry" />
        </mxCell>
        <mxCell id="w6YqWCxdYL73jzeexSl1-129" value="" style="endArrow=classic;html=1;rounded=0;exitX=0.503;exitY=1.207;exitDx=0;exitDy=0;exitPerimeter=0;" edge="1" parent="1" source="w6YqWCxdYL73jzeexSl1-126">
          <mxGeometry width="50" height="50" relative="1" as="geometry">
            <mxPoint x="-330" y="410" as="sourcePoint" />
            <mxPoint x="-330" y="510" as="targetPoint" />
          </mxGeometry>
        </mxCell>
        <mxCell id="w6YqWCxdYL73jzeexSl1-130" value="&lt;font face=&quot;Verdana&quot; style=&quot;font-size: 16px;&quot;&gt;i 成为基准点最终索引&lt;/font&gt;" style="text;html=1;align=center;verticalAlign=middle;resizable=0;points=[];autosize=1;strokeColor=none;fillColor=none;" vertex="1" parent="1">
          <mxGeometry x="-280" y="640" width="180" height="30" as="geometry" />
        </mxCell>
        <mxCell id="w6YqWCxdYL73jzeexSl1-131" value="&lt;font style=&quot;font-size: 16px;&quot; face=&quot;Verdana&quot;&gt;i&lt;br&gt;&lt;/font&gt;" style="text;html=1;align=center;verticalAlign=middle;resizable=0;points=[];autosize=1;strokeColor=none;fillColor=none;" vertex="1" parent="1">
          <mxGeometry x="-186" y="358" width="30" height="30" as="geometry" />
        </mxCell>
        <mxCell id="w6YqWCxdYL73jzeexSl1-132" value="" style="endArrow=classic;html=1;rounded=0;entryX=0.5;entryY=0;entryDx=0;entryDy=0;" edge="1" parent="1" target="w6YqWCxdYL73jzeexSl1-120">
          <mxGeometry width="50" height="50" relative="1" as="geometry">
            <mxPoint x="-170" y="390" as="sourcePoint" />
            <mxPoint x="-170" y="420" as="targetPoint" />
          </mxGeometry>
        </mxCell>
      </root>
    </mxGraphModel>
  </diagram>
</mxfile>
